<svg xmlns="http://www.w3.org/2000/svg" xmlns:xlink="http://www.w3.org/1999/xlink" width="1920" zoomAndPan="magnify" viewBox="0 0 1440 809.999993" height="1080" preserveAspectRatio="xMidYMid meet" version="1.0"><defs><clipPath id="507d254c83"><path d="M 452.398438 141.410156 L 987.898438 141.410156 L 987.898438 668.660156 L 452.398438 668.660156 Z M 452.398438 141.410156 " clip-rule="nonzero"/></clipPath></defs><g clip-path="url(#507d254c83)"><path fill="#ffcc00" d="M 987.503906 253.15625 C 986.074219 265.261719 973.914062 270.316406 963.195312 274.625 C 898.34375 300.640625 840.628906 323.753906 790.050781 343.964844 C 778.914062 348.414062 770.660156 351.003906 765.285156 351.734375 C 755.144531 353.128906 745.40625 352.664062 736.0625 350.335938 C 715.914062 345.296875 658.542969 330.347656 563.957031 305.5 C 536.390625 298.253906 499.117188 290.125 476.320312 283.972656 C 461.734375 280.039062 456.097656 266.40625 459.253906 252.460938 C 460.925781 245.09375 462.625 237.621094 464.351562 230.050781 C 465.527344 224.914062 468.027344 209.78125 471.859375 184.644531 C 473.082031 176.667969 476.558594 169.046875 482.304688 161.789062 C 492.773438 148.566406 506.613281 141.824219 523.816406 141.5625 C 527.257812 141.519531 533.785156 142.511719 543.386719 144.542969 C 582.292969 152.789062 632.636719 163.195312 694.421875 175.761719 C 763.472656 189.796875 865.433594 210.933594 966.867188 232.609375 C 971.390625 233.566406 974.777344 234.714844 977.019531 236.042969 C 982.957031 239.539062 988.320312 246.230469 987.503906 253.15625 Z M 788.292969 371.78125 C 788.363281 371.746094 788.433594 371.753906 788.496094 371.800781 C 788.558594 371.847656 788.585938 371.914062 788.570312 371.992188 C 785.460938 386.109375 782.558594 400.425781 779.871094 414.945312 C 776.074219 435.488281 780.355469 456.253906 795.105469 471.554688 C 795.660156 472.136719 795.640625 473.058594 795.066406 473.609375 C 794.792969 473.875 794.421875 474.015625 794.039062 474.011719 C 791.519531 473.945312 788.894531 473.300781 786.171875 472.070312 C 778.277344 468.523438 771.171875 465.929688 764.855469 464.285156 C 698.199219 446.953125 617.792969 424.75 544.242188 405.996094 C 526.707031 401.527344 515.289062 397.925781 509.988281 395.195312 C 497.328125 388.675781 487.378906 378.714844 480.136719 365.316406 C 470.730469 347.855469 471.078125 328.78125 473.851562 309.335938 C 473.863281 309.230469 473.914062 309.148438 474.003906 309.085938 C 474.09375 309.023438 474.1875 309.007812 474.292969 309.03125 C 540.378906 326.554688 595.992188 340.140625 656.671875 356.625 C 679.484375 362.820312 701.824219 368.667969 723.703125 374.175781 C 746.058594 379.796875 767.085938 382.125 788.292969 371.78125 Z M 931.5 311.511719 C 937.800781 310.941406 942.273438 314.210938 945.199219 319.695312 C 948.660156 326.195312 949.683594 333.214844 948.257812 340.75 C 941.242188 378.066406 935.898438 404.226562 932.230469 419.230469 C 927.6875 437.847656 915.777344 453.597656 897.0625 458.789062 C 893.496094 459.777344 888.824219 460.535156 883.042969 461.0625 C 876.339844 461.679688 862.3125 463.019531 840.960938 465.078125 C 827.375 466.394531 816.25 463.636719 808.191406 452.089844 C 801.542969 442.558594 801.65625 432.988281 804.121094 420.878906 C 809.441406 394.8125 812.847656 377.933594 814.34375 370.253906 C 815.976562 361.761719 819.410156 355.527344 827.941406 352.207031 C 855.175781 341.613281 887.5625 328.414062 925.109375 312.605469 C 926.140625 312.171875 928.265625 311.804688 931.5 311.511719 Z M 867.921875 378.664062 C 865.957031 389.648438 866.382812 404.496094 880.441406 407.003906 C 894.515625 409.511719 900.054688 395.742188 902.011719 384.757812 C 903.976562 373.769531 903.546875 358.9375 889.492188 356.417969 C 875.429688 353.910156 869.886719 367.675781 867.921875 378.664062 Z M 598.636719 446.90625 C 598.640625 446.769531 598.714844 446.703125 598.851562 446.707031 C 598.867188 446.707031 598.882812 446.710938 598.902344 446.714844 L 709.988281 475.679688 C 710.421875 475.789062 710.71875 476.195312 710.695312 476.648438 C 709.8125 495.476562 696.109375 511.429688 677.34375 514.339844 C 677.011719 514.390625 676.738281 514.542969 676.519531 514.796875 C 676.300781 515.054688 676.191406 515.347656 676.195312 515.683594 C 676.183594 527.621094 676.195312 534.617188 676.222656 536.65625 C 676.34375 547.5625 676.054688 554.527344 675.363281 557.558594 C 671.070312 576.242188 655.542969 586.0625 636.660156 586.007812 C 586.921875 585.871094 549.140625 585.855469 523.3125 585.964844 C 522.871094 585.964844 522.511719 586.324219 522.511719 586.769531 C 522.398438 596.335938 522.390625 606.234375 522.480469 616.464844 C 522.5625 625.746094 522.925781 633.570312 518.132812 640.175781 C 515.90625 643.253906 512.703125 646.394531 508.519531 649.609375 C 493.90625 660.855469 484.324219 671.261719 467.476562 667.714844 C 455.441406 665.191406 452.394531 654.960938 452.394531 644.097656 C 452.382812 549.273438 452.390625 499.0625 452.40625 493.476562 C 452.425781 484.371094 456.5 478.167969 464.625 474.859375 C 466.496094 474.09375 470.054688 473.652344 475.289062 473.542969 C 481.050781 473.433594 488.4375 473.460938 497.449219 473.625 C 508.988281 473.832031 517.894531 478.085938 521.675781 489.636719 C 522.257812 491.398438 522.527344 495.574219 522.492188 502.15625 C 522.417969 513.554688 522.410156 524.296875 522.464844 534.390625 C 522.464844 534.8125 522.808594 535.152344 523.226562 535.152344 L 631.019531 535.152344 C 631.265625 535.152344 631.472656 535.066406 631.644531 534.894531 C 631.816406 534.722656 631.90625 534.511719 631.90625 534.269531 L 631.890625 515.582031 C 631.886719 515.308594 631.808594 515.0625 631.648438 514.839844 C 631.484375 514.617188 631.277344 514.464844 631.015625 514.378906 C 629.035156 513.738281 625.476562 513.1875 623.039062 511.980469 C 606.519531 503.878906 598.28125 490.34375 598.328125 471.371094 C 598.351562 461.914062 598.453125 453.761719 598.636719 446.90625 Z M 598.636719 446.90625 " fill-opacity="1" fill-rule="nonzero"/></g></svg>