<svg xmlns="http://www.w3.org/2000/svg" xmlns:xlink="http://www.w3.org/1999/xlink" width="1920" zoomAndPan="magnify" viewBox="0 0 1440 809.999993" height="1080" preserveAspectRatio="xMidYMid meet" version="1.0"><defs><clipPath id="3526b2e735"><path d="M 183.765625 384 L 201 384 L 201 426 L 183.765625 426 Z M 183.765625 384 " clip-rule="nonzero"/></clipPath><clipPath id="be5b9c18a3"><path d="M 1239 389 L 1256.265625 389 L 1256.265625 421 L 1239 421 Z M 1239 389 " clip-rule="nonzero"/></clipPath></defs><g clip-path="url(#3526b2e735)"><path fill="#ffcc00" d="M 192.03125 384.492188 C 187.464844 384.492188 183.765625 388.191406 183.765625 392.761719 L 183.765625 417.246094 C 183.765625 421.8125 187.464844 425.515625 192.03125 425.515625 C 196.601562 425.515625 200.300781 421.8125 200.300781 417.246094 L 200.300781 392.761719 C 200.300781 388.191406 196.601562 384.492188 192.03125 384.492188 Z M 192.03125 384.492188 " fill-opacity="1" fill-rule="nonzero"/></g><path fill="#ffcc00" d="M 247.609375 369.433594 C 243.039062 369.433594 239.339844 373.136719 239.339844 377.703125 L 239.339844 432.28125 C 239.339844 436.851562 243.039062 440.550781 247.609375 440.550781 C 252.175781 440.550781 255.878906 436.851562 255.878906 432.28125 L 255.878906 377.703125 C 255.878906 373.136719 252.175781 369.433594 247.609375 369.433594 Z M 247.609375 369.433594 " fill-opacity="1" fill-rule="nonzero"/><path fill="#ffcc00" d="M 303.183594 348.597656 C 298.613281 348.597656 294.914062 352.296875 294.914062 356.867188 L 294.914062 453.128906 C 294.914062 457.699219 298.613281 461.398438 303.183594 461.398438 C 307.753906 461.398438 311.453125 457.699219 311.453125 453.128906 L 311.453125 356.867188 C 311.453125 352.296875 307.753906 348.597656 303.183594 348.597656 Z M 303.183594 348.597656 " fill-opacity="1" fill-rule="nonzero"/><path fill="#ffcc00" d="M 358.757812 302.941406 C 354.191406 302.941406 350.488281 306.640625 350.488281 311.210938 L 350.488281 498.773438 C 350.488281 503.34375 354.191406 507.042969 358.757812 507.042969 C 363.328125 507.042969 367.027344 503.34375 367.027344 498.773438 L 367.027344 311.210938 C 367.027344 306.640625 363.328125 302.941406 358.757812 302.941406 Z M 358.757812 302.941406 " fill-opacity="1" fill-rule="nonzero"/><path fill="#ffcc00" d="M 414.332031 219.085938 C 409.765625 219.085938 406.066406 222.785156 406.066406 227.355469 L 406.066406 582.640625 C 406.066406 587.210938 409.765625 590.910156 414.332031 590.910156 C 418.902344 590.910156 422.601562 587.210938 422.601562 582.640625 L 422.601562 227.355469 C 422.601562 222.785156 418.902344 219.085938 414.332031 219.085938 Z M 414.332031 219.085938 " fill-opacity="1" fill-rule="nonzero"/><path fill="#ffcc00" d="M 469.910156 312.875 C 465.339844 312.875 461.640625 316.574219 461.640625 321.140625 L 461.640625 488.855469 C 461.640625 493.421875 465.339844 497.121094 469.910156 497.121094 C 474.476562 497.121094 478.175781 493.421875 478.175781 488.855469 L 478.175781 321.140625 C 478.175781 316.574219 474.476562 312.875 469.910156 312.875 Z M 469.910156 312.875 " fill-opacity="1" fill-rule="nonzero"/><path fill="#ffcc00" d="M 525.484375 339.171875 C 520.914062 339.171875 517.214844 342.871094 517.214844 347.4375 L 517.214844 462.558594 C 517.214844 467.125 520.914062 470.824219 525.484375 470.824219 C 530.050781 470.824219 533.753906 467.125 533.753906 462.558594 L 533.753906 347.4375 C 533.753906 342.871094 530.050781 339.171875 525.484375 339.171875 Z M 525.484375 339.171875 " fill-opacity="1" fill-rule="nonzero"/><path fill="#ffcc00" d="M 581.058594 359.515625 C 576.492188 359.515625 572.789062 363.214844 572.789062 367.785156 L 572.789062 442.210938 C 572.789062 446.78125 576.492188 450.480469 581.058594 450.480469 C 585.628906 450.480469 589.328125 446.78125 589.328125 442.210938 L 589.328125 367.785156 C 589.328125 363.214844 585.628906 359.515625 581.058594 359.515625 Z M 581.058594 359.515625 " fill-opacity="1" fill-rule="nonzero"/><path fill="#ffcc00" d="M 636.632812 379.355469 C 632.066406 379.355469 628.367188 383.054688 628.367188 387.625 L 628.367188 422.359375 C 628.367188 426.929688 632.066406 430.628906 636.632812 430.628906 C 641.203125 430.628906 644.902344 426.929688 644.902344 422.359375 L 644.902344 387.625 C 644.902344 383.054688 641.203125 379.355469 636.632812 379.355469 Z M 636.632812 379.355469 " fill-opacity="1" fill-rule="nonzero"/><path fill="#ffcc00" d="M 692.210938 232.976562 C 687.640625 232.976562 683.941406 236.675781 683.941406 241.242188 L 683.941406 568.742188 C 683.941406 573.3125 687.640625 577.011719 692.210938 577.011719 C 696.777344 577.011719 700.476562 573.3125 700.476562 568.742188 L 700.476562 241.253906 C 700.476562 236.683594 696.777344 232.984375 692.210938 232.984375 Z M 692.210938 232.976562 " fill-opacity="1" fill-rule="nonzero"/><path fill="#ffcc00" d="M 747.785156 312.875 C 743.214844 312.875 739.515625 316.574219 739.515625 321.140625 L 739.515625 488.855469 C 739.515625 493.421875 743.214844 497.121094 747.785156 497.121094 C 752.351562 497.121094 756.054688 493.421875 756.054688 488.855469 L 756.054688 321.140625 C 756.054688 316.574219 752.351562 312.875 747.785156 312.875 Z M 747.785156 312.875 " fill-opacity="1" fill-rule="nonzero"/><path fill="#ffcc00" d="M 803.359375 337.1875 C 798.789062 337.1875 795.089844 340.886719 795.089844 345.453125 L 795.089844 464.542969 C 795.089844 469.109375 798.789062 472.808594 803.359375 472.808594 C 807.929688 472.808594 811.628906 469.109375 811.628906 464.542969 L 811.628906 345.453125 C 811.628906 340.886719 807.929688 337.1875 803.359375 337.1875 Z M 803.359375 337.1875 " fill-opacity="1" fill-rule="nonzero"/><path fill="#ffcc00" d="M 858.933594 360.5 C 854.367188 360.5 850.664062 364.203125 850.664062 368.769531 L 850.664062 441.214844 C 850.664062 445.785156 854.367188 449.484375 858.933594 449.484375 C 863.503906 449.484375 867.203125 445.785156 867.203125 441.214844 L 867.203125 368.769531 C 867.203125 364.203125 863.503906 360.5 858.933594 360.5 Z M 858.933594 360.5 " fill-opacity="1" fill-rule="nonzero"/><path fill="#ffcc00" d="M 914.511719 383.335938 C 909.941406 383.335938 906.242188 387.035156 906.242188 391.601562 L 906.242188 418.394531 C 906.242188 422.960938 909.941406 426.660156 914.511719 426.660156 C 919.078125 426.660156 922.777344 422.960938 922.777344 418.394531 L 922.777344 391.601562 C 922.777344 387.035156 919.078125 383.335938 914.511719 383.335938 Z M 914.511719 383.335938 " fill-opacity="1" fill-rule="nonzero"/><path fill="#ffcc00" d="M 970.085938 389.039062 C 965.515625 389.039062 961.816406 392.738281 961.816406 397.308594 L 961.816406 412.6875 C 961.816406 417.257812 965.515625 420.957031 970.085938 420.957031 C 974.652344 420.957031 978.355469 417.257812 978.355469 412.6875 L 978.355469 397.308594 C 978.355469 392.738281 974.652344 389.039062 970.085938 389.039062 Z M 970.085938 389.039062 " fill-opacity="1" fill-rule="nonzero"/><path fill="#ffcc00" d="M 1081.234375 389.039062 C 1076.667969 389.039062 1072.964844 392.738281 1072.964844 397.308594 L 1072.964844 412.6875 C 1072.964844 417.257812 1076.667969 420.957031 1081.234375 420.957031 C 1085.804688 420.957031 1089.503906 417.257812 1089.503906 412.6875 L 1089.503906 397.308594 C 1089.503906 392.738281 1085.804688 389.039062 1081.234375 389.039062 Z M 1081.234375 389.039062 " fill-opacity="1" fill-rule="nonzero"/><path fill="#ffcc00" d="M 1136.808594 320.96875 C 1132.242188 320.96875 1128.542969 324.671875 1128.542969 329.238281 L 1128.542969 480.746094 C 1128.542969 485.316406 1132.242188 489.015625 1136.808594 489.015625 C 1141.378906 489.015625 1145.078125 485.316406 1145.078125 480.746094 L 1145.078125 329.238281 C 1145.078125 324.671875 1141.378906 320.96875 1136.808594 320.96875 Z M 1136.808594 320.96875 " fill-opacity="1" fill-rule="nonzero"/><path fill="#ffcc00" d="M 1192.386719 370.925781 C 1187.816406 370.925781 1184.117188 374.625 1184.117188 379.195312 L 1184.117188 430.800781 C 1184.117188 435.371094 1187.816406 439.070312 1192.386719 439.070312 C 1196.953125 439.070312 1200.652344 435.371094 1200.652344 430.800781 L 1200.652344 379.195312 C 1200.652344 374.625 1196.953125 370.925781 1192.386719 370.925781 Z M 1192.386719 370.925781 " fill-opacity="1" fill-rule="nonzero"/><g clip-path="url(#be5b9c18a3)"><path fill="#ffcc00" d="M 1247.960938 389.039062 C 1243.390625 389.039062 1239.691406 392.738281 1239.691406 397.308594 L 1239.691406 412.6875 C 1239.691406 417.257812 1243.390625 420.957031 1247.960938 420.957031 C 1252.527344 420.957031 1256.230469 417.257812 1256.230469 412.6875 L 1256.230469 397.308594 C 1256.230469 392.738281 1252.527344 389.039062 1247.960938 389.039062 Z M 1247.960938 389.039062 " fill-opacity="1" fill-rule="nonzero"/></g><path fill="#ffcc00" d="M 1025.660156 370.925781 C 1021.089844 370.925781 1017.390625 374.625 1017.390625 379.195312 L 1017.390625 430.800781 C 1017.390625 435.371094 1021.089844 439.070312 1025.660156 439.070312 C 1030.230469 439.070312 1033.929688 435.371094 1033.929688 430.800781 L 1033.929688 379.195312 C 1033.929688 374.625 1030.230469 370.925781 1025.660156 370.925781 Z M 1025.660156 370.925781 " fill-opacity="1" fill-rule="nonzero"/></svg>