<svg xmlns="http://www.w3.org/2000/svg" xmlns:xlink="http://www.w3.org/1999/xlink" width="1920" zoomAndPan="magnify" viewBox="0 0 1440 809.999993" height="1080" preserveAspectRatio="xMidYMid meet" version="1.0"><defs><clipPath id="14cfeba836"><path d="M 510.015625 535 L 575 535 L 575 683 L 510.015625 683 Z M 510.015625 535 " clip-rule="nonzero"/></clipPath></defs><path fill="#ffcc00" d="M 860.789062 378.105469 C 844.0625 440.316406 787.386719 486.40625 720 486.40625 C 652.492188 486.40625 595.933594 440.316406 579.207031 378.105469 L 600.628906 269.203125 L 718.195312 291.585938 C 719.035156 291.824219 719.878906 291.824219 720.839844 291.585938 L 838.527344 269.082031 Z M 860.789062 378.105469 " fill-opacity="1" fill-rule="nonzero"/><path fill="#ffcc00" d="M 878.117188 290.382812 C 877.035156 311.078125 873.183594 330.453125 868.851562 348.382812 L 850.5625 259.695312 C 849.839844 256.445312 846.949219 254.160156 843.703125 254.160156 C 843.339844 254.160156 842.859375 254.160156 842.378906 254.28125 L 719.515625 277.746094 L 596.535156 254.28125 C 592.683594 253.4375 589.195312 256.085938 588.472656 259.816406 L 571.144531 347.902344 C 566.8125 330.089844 563.203125 310.957031 562.121094 290.5 C 559.59375 243.449219 571.507812 205.425781 597.617188 177.75 C 643.585938 128.53125 719.277344 127.328125 720 127.328125 C 720.71875 127.328125 796.53125 128.53125 842.617188 177.628906 C 868.609375 205.425781 880.644531 243.332031 878.117188 290.382812 Z M 878.117188 290.382812 " fill-opacity="1" fill-rule="nonzero"/><path fill="#ffcc00" d="M 865.964844 535.863281 L 865.964844 682.667969 L 929.980469 682.667969 C 928.175781 662.453125 918.667969 587.726562 865.964844 535.863281 Z M 865.964844 535.863281 " fill-opacity="1" fill-rule="nonzero"/><g clip-path="url(#14cfeba836)"><path fill="#ffcc00" d="M 574.035156 535.863281 C 521.328125 587.726562 511.699219 662.332031 510.015625 682.667969 L 574.035156 682.667969 Z M 574.035156 535.863281 " fill-opacity="1" fill-rule="nonzero"/></g><path fill="#ffcc00" d="M 720 608.664062 L 766.6875 527.078125 L 787.144531 491.339844 C 784.136719 490.496094 781.007812 490.015625 777.878906 489.292969 C 759.949219 496.273438 740.457031 500.363281 720 500.363281 C 699.542969 500.363281 680.046875 496.390625 662.117188 489.292969 C 659.109375 490.015625 655.859375 490.496094 652.851562 491.339844 L 673.308594 527.078125 Z M 720 608.664062 " fill-opacity="1" fill-rule="nonzero"/><path fill="#ffcc00" d="M 852.003906 523.707031 C 836.84375 511.796875 819.636719 502.289062 800.621094 495.550781 L 745.390625 592.058594 L 726.859375 624.425781 L 726.859375 682.667969 L 852.003906 682.667969 Z M 815.183594 643.199219 L 758.746094 643.199219 C 754.894531 643.199219 751.765625 640.070312 751.765625 636.21875 C 751.765625 632.371094 754.894531 629.242188 758.746094 629.242188 L 815.183594 629.242188 C 819.035156 629.242188 822.160156 632.371094 822.160156 636.21875 C 822.160156 640.070312 819.03125 643.199219 815.183594 643.199219 Z M 815.183594 643.199219 " fill-opacity="1" fill-rule="nonzero"/><path fill="#ffcc00" d="M 713.019531 624.425781 L 694.488281 592.058594 L 639.375 495.429688 C 620.363281 502.167969 603.035156 511.675781 587.992188 523.589844 L 587.992188 682.550781 L 713.140625 682.550781 L 713.140625 624.425781 Z M 713.019531 624.425781 " fill-opacity="1" fill-rule="nonzero"/></svg>