<svg xmlns="http://www.w3.org/2000/svg" xmlns:xlink="http://www.w3.org/1999/xlink" width="1920" zoomAndPan="magnify" viewBox="0 0 1440 809.999993" height="1080" preserveAspectRatio="xMidYMid meet" version="1.0"><defs><clipPath id="c0d8b62f7c"><path d="M 443.3125 128.3125 L 996.8125 128.3125 L 996.8125 681.8125 L 443.3125 681.8125 Z M 443.3125 128.3125 " clip-rule="nonzero"/></clipPath></defs><g clip-path="url(#c0d8b62f7c)"><path fill="#ffcc00" d="M 996.667969 405 C 996.667969 418.484375 949.6875 428.175781 947.632812 441.121094 C 945.582031 454.40625 987.261719 478.039062 983.128906 490.527344 C 978.992188 503.269531 931.382812 497.882812 925.367188 509.65625 C 919.351562 521.515625 951.597656 557.011719 943.785156 567.703125 C 935.972656 578.480469 892.296875 558.636719 882.886719 568.074219 C 873.480469 577.511719 893.324219 621.074219 882.515625 628.96875 C 871.828125 636.78125 836.332031 604.453125 824.472656 610.550781 C 812.699219 616.566406 818.085938 664.179688 805.34375 668.3125 C 792.855469 672.363281 769.21875 630.679688 755.933594 632.820312 C 743.191406 634.699219 733.46875 681.683594 720.011719 681.683594 C 706.554688 681.683594 696.835938 634.699219 683.890625 632.648438 C 670.605469 630.59375 646.972656 672.277344 634.484375 668.140625 C 621.738281 664.007812 627.128906 616.398438 615.355469 610.382812 C 603.492188 604.367188 568 636.609375 557.308594 628.800781 C 546.53125 620.988281 566.375 577.308594 556.9375 567.902344 C 547.585938 558.550781 503.9375 578.335938 496.042969 567.53125 C 488.230469 556.839844 520.558594 521.347656 514.457031 509.484375 C 508.441406 497.710938 460.832031 503.101562 456.699219 490.355469 C 452.648438 477.867188 494.332031 454.234375 492.191406 440.949219 C 490.3125 428.207031 443.328125 418.484375 443.328125 405.027344 C 443.328125 391.570312 490.3125 381.847656 492.363281 368.90625 C 494.417969 355.621094 452.734375 331.984375 456.871094 319.5 C 461.003906 306.753906 508.613281 312.144531 514.628906 300.367188 C 520.644531 288.507812 488.402344 253.015625 496.210938 242.324219 C 504.023438 231.546875 547.699219 251.390625 557.109375 241.953125 C 566.460938 232.601562 546.675781 188.953125 557.480469 181.054688 C 568.171875 173.246094 603.664062 205.574219 615.523438 199.472656 C 627.300781 193.457031 621.910156 145.847656 634.65625 141.710938 C 647.140625 137.664062 670.777344 179.34375 684.0625 177.207031 C 696.804688 175.296875 706.5 128.3125 719.984375 128.3125 C 733.46875 128.3125 743.164062 175.296875 756.105469 177.347656 C 769.390625 179.402344 793.027344 137.722656 805.511719 141.855469 C 818.257812 145.988281 812.867188 193.601562 824.644531 199.617188 C 836.503906 205.632812 871.996094 173.386719 882.6875 181.199219 C 893.464844 189.011719 873.621094 232.6875 883.058594 242.09375 C 892.410156 251.445312 936.058594 231.660156 943.957031 242.464844 C 951.765625 253.15625 919.4375 288.652344 925.539062 300.511719 C 931.554688 312.285156 979.164062 306.898438 983.296875 319.640625 C 987.347656 332.128906 945.667969 355.761719 947.804688 369.046875 C 949.6875 381.792969 996.667969 391.511719 996.667969 404.96875 Z M 996.667969 405 " fill-opacity="1" fill-rule="nonzero"/></g><path fill="#ffffff" d="M 693.015625 489.160156 L 617.636719 421.078125 C 606.859375 411.300781 605.234375 394.5625 614.585938 383.445312 C 624.476562 371.757812 641.894531 370.585938 653.214844 380.738281 L 692.386719 416.117188 L 786.269531 328.078125 C 797.046875 317.929688 814.121094 318.472656 824.273438 329.335938 C 834.421875 340.109375 833.878906 357.1875 823.019531 367.335938 L 693.042969 489.160156 Z M 693.015625 489.160156 " fill-opacity="1" fill-rule="nonzero"/></svg>