<svg xmlns="http://www.w3.org/2000/svg" xmlns:xlink="http://www.w3.org/1999/xlink" width="1920" zoomAndPan="magnify" viewBox="0 0 1440 809.999993" height="1080" preserveAspectRatio="xMidYMid meet" version="1.0"><defs><clipPath id="359f3ae092"><path d="M 448.777344 138 L 991.027344 138 L 991.027344 504 L 448.777344 504 Z M 448.777344 138 " clip-rule="nonzero"/></clipPath></defs><path fill="#ffcc00" d="M 720.109375 663.96875 C 712.726562 663.96875 706.785156 657.988281 706.785156 650.644531 L 706.785156 377.582031 C 706.785156 370.203125 712.765625 364.261719 720.109375 364.261719 C 727.449219 364.261719 733.429688 370.238281 733.429688 377.582031 L 733.429688 650.644531 C 733.429688 658.027344 727.449219 663.96875 720.109375 663.96875 Z M 720.109375 663.96875 " fill-opacity="1" fill-rule="nonzero"/><path fill="#ffcc00" d="M 720.109375 671.644531 C 715.496094 671.644531 710.882812 670.683594 706.601562 668.839844 L 482.46875 570.683594 C 473.945312 566.957031 468.410156 558.503906 468.410156 549.167969 L 468.410156 388.246094 C 468.410156 380.867188 474.386719 374.925781 481.730469 374.925781 C 489.074219 374.925781 495.050781 380.902344 495.050781 388.246094 L 495.050781 547.066406 L 717.304688 644.375 C 719.074219 645.148438 721.105469 645.148438 722.875 644.375 L 945.128906 547.066406 L 945.128906 437.433594 C 945.128906 430.054688 951.105469 424.113281 958.449219 424.113281 C 965.792969 424.113281 971.769531 430.09375 971.769531 437.433594 L 971.769531 549.167969 C 971.769531 558.503906 966.234375 566.917969 957.710938 570.683594 L 733.539062 668.839844 C 729.257812 670.71875 724.648438 671.644531 720.070312 671.644531 Z M 720.109375 671.644531 " fill-opacity="1" fill-rule="nonzero"/><path fill="#ffcc00" d="M 720.109375 387.214844 C 712.726562 387.214844 705.347656 385.699219 698.484375 382.675781 L 470.917969 283.042969 C 464.164062 280.089844 461.101562 272.230469 464.054688 265.480469 C 467.007812 258.726562 474.867188 255.664062 481.621094 258.613281 L 709.222656 358.285156 C 716.160156 361.308594 724.128906 361.347656 731.066406 358.285156 L 965.53125 255.625 C 972.285156 252.675781 980.144531 255.738281 983.097656 262.488281 C 986.050781 269.242188 982.988281 277.101562 976.234375 280.054688 L 741.804688 382.710938 C 734.941406 385.738281 727.5625 387.25 720.179688 387.25 Z M 720.109375 387.214844 " fill-opacity="1" fill-rule="nonzero"/><path fill="#ffcc00" d="M 607.488281 510.976562 C 605.714844 510.976562 603.871094 510.609375 602.136719 509.871094 L 569.148438 495.40625 C 562.394531 492.453125 559.332031 484.59375 562.285156 477.839844 C 565.234375 471.089844 573.097656 468.027344 579.847656 470.976562 L 612.839844 485.441406 C 619.589844 488.394531 622.652344 496.253906 619.703125 503.007812 C 617.523438 508.027344 612.617188 510.976562 607.488281 510.976562 Z M 607.488281 510.976562 " fill-opacity="1" fill-rule="nonzero"/><g clip-path="url(#359f3ae092)"><path fill="#ffcc00" d="M 720.109375 503.746094 L 720.070312 503.746094 C 718.890625 503.746094 717.746094 503.5625 716.601562 503.265625 C 715.976562 503.082031 715.382812 502.859375 714.792969 502.601562 L 463.167969 392.453125 C 454.644531 388.726562 449.148438 380.3125 449.109375 371.015625 L 448.777344 271.308594 C 448.777344 261.9375 454.277344 253.449219 462.875 249.722656 L 703.761719 141.898438 C 714.167969 137.25 726.085938 137.25 736.492188 141.898438 L 977.15625 249.945312 C 985.570312 253.632812 991.105469 262.082031 991.105469 271.382812 L 991.105469 370.941406 C 991.105469 380.277344 985.570312 388.691406 977.046875 392.453125 L 725.570312 502.566406 C 724.980469 502.824219 724.351562 503.042969 723.722656 503.230469 C 722.578125 503.523438 721.398438 503.707031 720.21875 503.707031 Z M 475.789062 368.875 L 706.785156 470.019531 L 706.785156 377.582031 C 706.785156 370.203125 712.765625 364.261719 720.109375 364.261719 C 727.449219 364.261719 733.429688 370.238281 733.429688 377.582031 L 733.429688 470.019531 L 964.390625 368.875 L 964.390625 273.484375 L 725.570312 166.214844 C 722.101562 164.667969 718.113281 164.667969 714.644531 166.214844 L 475.457031 273.300781 Z M 966.308594 274.335938 L 966.34375 274.335938 C 966.34375 274.335938 966.308594 274.335938 966.308594 274.335938 Z M 473.722656 274.113281 L 473.6875 274.113281 C 473.6875 274.113281 473.6875 274.113281 473.722656 274.113281 Z M 473.722656 274.113281 " fill-opacity="1" fill-rule="nonzero"/></g></svg>