<svg xmlns="http://www.w3.org/2000/svg" xmlns:xlink="http://www.w3.org/1999/xlink" width="1920" zoomAndPan="magnify" viewBox="0 0 1440 809.999993" height="1080" preserveAspectRatio="xMidYMid meet" version="1.0"><defs><clipPath id="5c1653d31f"><path d="M 435.191406 120.191406 L 1004.808594 120.191406 L 1004.808594 689.808594 L 435.191406 689.808594 Z M 435.191406 120.191406 " clip-rule="nonzero"/></clipPath><clipPath id="783a8e8f02"><path d="M 720 120.191406 C 562.703125 120.191406 435.191406 247.703125 435.191406 405 C 435.191406 562.296875 562.703125 689.808594 720 689.808594 C 877.296875 689.808594 1004.808594 562.296875 1004.808594 405 C 1004.808594 247.703125 877.296875 120.191406 720 120.191406 Z M 720 120.191406 " clip-rule="nonzero"/></clipPath><clipPath id="7e3aefa979"><path d="M 0.191406 0.191406 L 569.808594 0.191406 L 569.808594 569.808594 L 0.191406 569.808594 Z M 0.191406 0.191406 " clip-rule="nonzero"/></clipPath><clipPath id="25b823a6fa"><path d="M 285 0.191406 C 127.703125 0.191406 0.191406 127.703125 0.191406 285 C 0.191406 442.296875 127.703125 569.808594 285 569.808594 C 442.296875 569.808594 569.808594 442.296875 569.808594 285 C 569.808594 127.703125 442.296875 0.191406 285 0.191406 Z M 285 0.191406 " clip-rule="nonzero"/></clipPath><clipPath id="1190ab6226"><rect x="0" width="570" y="0" height="570"/></clipPath><clipPath id="fde29917ed"><path d="M 488.320312 173.320312 L 951.679688 173.320312 L 951.679688 636.679688 L 488.320312 636.679688 Z M 488.320312 173.320312 " clip-rule="nonzero"/></clipPath><clipPath id="31eb48a94f"><path d="M 720 173.320312 C 592.046875 173.320312 488.320312 277.046875 488.320312 405 C 488.320312 532.953125 592.046875 636.679688 720 636.679688 C 847.953125 636.679688 951.679688 532.953125 951.679688 405 C 951.679688 277.046875 847.953125 173.320312 720 173.320312 Z M 720 173.320312 " clip-rule="nonzero"/></clipPath><clipPath id="fb3e5a4e56"><path d="M 0.320312 0.320312 L 463.679688 0.320312 L 463.679688 463.679688 L 0.320312 463.679688 Z M 0.320312 0.320312 " clip-rule="nonzero"/></clipPath><clipPath id="4adf2b8f89"><path d="M 232 0.320312 C 104.046875 0.320312 0.320312 104.046875 0.320312 232 C 0.320312 359.953125 104.046875 463.679688 232 463.679688 C 359.953125 463.679688 463.679688 359.953125 463.679688 232 C 463.679688 104.046875 359.953125 0.320312 232 0.320312 Z M 232 0.320312 " clip-rule="nonzero"/></clipPath><clipPath id="6c07a9b683"><rect x="0" width="464" y="0" height="464"/></clipPath><clipPath id="90164157f5"><path d="M 530.5625 215.5625 L 909.4375 215.5625 L 909.4375 594.4375 L 530.5625 594.4375 Z M 530.5625 215.5625 " clip-rule="nonzero"/></clipPath><clipPath id="283f0154ab"><path d="M 720 215.5625 C 615.378906 215.5625 530.5625 300.378906 530.5625 405 C 530.5625 509.621094 615.378906 594.4375 720 594.4375 C 824.621094 594.4375 909.4375 509.621094 909.4375 405 C 909.4375 300.378906 824.621094 215.5625 720 215.5625 Z M 720 215.5625 " clip-rule="nonzero"/></clipPath><clipPath id="64cf0cb334"><path d="M 0.5625 0.5625 L 379.4375 0.5625 L 379.4375 379.4375 L 0.5625 379.4375 Z M 0.5625 0.5625 " clip-rule="nonzero"/></clipPath><clipPath id="5a72aab8db"><path d="M 190 0.5625 C 85.378906 0.5625 0.5625 85.378906 0.5625 190 C 0.5625 294.621094 85.378906 379.4375 190 379.4375 C 294.621094 379.4375 379.4375 294.621094 379.4375 190 C 379.4375 85.378906 294.621094 0.5625 190 0.5625 Z M 190 0.5625 " clip-rule="nonzero"/></clipPath><clipPath id="e9101d0586"><rect x="0" width="380" y="0" height="380"/></clipPath><clipPath id="5278f40a02"><path d="M 599.371094 284.371094 L 840.628906 284.371094 L 840.628906 525.628906 L 599.371094 525.628906 Z M 599.371094 284.371094 " clip-rule="nonzero"/></clipPath><clipPath id="01487a43cf"><path d="M 720 284.371094 C 653.378906 284.371094 599.371094 338.378906 599.371094 405 C 599.371094 471.621094 653.378906 525.628906 720 525.628906 C 786.621094 525.628906 840.628906 471.621094 840.628906 405 C 840.628906 338.378906 786.621094 284.371094 720 284.371094 Z M 720 284.371094 " clip-rule="nonzero"/></clipPath><clipPath id="e2d770a325"><path d="M 0.371094 0.371094 L 241.628906 0.371094 L 241.628906 241.628906 L 0.371094 241.628906 Z M 0.371094 0.371094 " clip-rule="nonzero"/></clipPath><clipPath id="bcac12b403"><path d="M 121 0.371094 C 54.378906 0.371094 0.371094 54.378906 0.371094 121 C 0.371094 187.621094 54.378906 241.628906 121 241.628906 C 187.621094 241.628906 241.628906 187.621094 241.628906 121 C 241.628906 54.378906 187.621094 0.371094 121 0.371094 Z M 121 0.371094 " clip-rule="nonzero"/></clipPath><clipPath id="de6f81362b"><rect x="0" width="242" y="0" height="242"/></clipPath><clipPath id="8215fbb89e"><path d="M 649.234375 334.234375 L 790.765625 334.234375 L 790.765625 475.765625 L 649.234375 475.765625 Z M 649.234375 334.234375 " clip-rule="nonzero"/></clipPath><clipPath id="853894680f"><path d="M 720 334.234375 C 680.917969 334.234375 649.234375 365.917969 649.234375 405 C 649.234375 444.082031 680.917969 475.765625 720 475.765625 C 759.082031 475.765625 790.765625 444.082031 790.765625 405 C 790.765625 365.917969 759.082031 334.234375 720 334.234375 Z M 720 334.234375 " clip-rule="nonzero"/></clipPath><clipPath id="993313e49f"><path d="M 0.234375 0.234375 L 141.765625 0.234375 L 141.765625 141.765625 L 0.234375 141.765625 Z M 0.234375 0.234375 " clip-rule="nonzero"/></clipPath><clipPath id="ceb7367bf2"><path d="M 71 0.234375 C 31.917969 0.234375 0.234375 31.917969 0.234375 71 C 0.234375 110.082031 31.917969 141.765625 71 141.765625 C 110.082031 141.765625 141.765625 110.082031 141.765625 71 C 141.765625 31.917969 110.082031 0.234375 71 0.234375 Z M 71 0.234375 " clip-rule="nonzero"/></clipPath><clipPath id="e9f749da3a"><rect x="0" width="142" y="0" height="142"/></clipPath><clipPath id="a324f3f191"><path d="M 762.265625 276.773438 L 840.628906 276.773438 L 840.628906 355.136719 L 762.265625 355.136719 Z M 762.265625 276.773438 " clip-rule="nonzero"/></clipPath><clipPath id="355dcc4c7c"><path d="M 801.449219 276.773438 C 779.808594 276.773438 762.265625 294.316406 762.265625 315.957031 C 762.265625 337.59375 779.808594 355.136719 801.449219 355.136719 C 823.085938 355.136719 840.628906 337.59375 840.628906 315.957031 C 840.628906 294.316406 823.085938 276.773438 801.449219 276.773438 Z M 801.449219 276.773438 " clip-rule="nonzero"/></clipPath><clipPath id="8667abea0c"><path d="M 0.265625 0.773438 L 78.628906 0.773438 L 78.628906 79.136719 L 0.265625 79.136719 Z M 0.265625 0.773438 " clip-rule="nonzero"/></clipPath><clipPath id="0bb73ed051"><path d="M 39.449219 0.773438 C 17.808594 0.773438 0.265625 18.316406 0.265625 39.957031 C 0.265625 61.59375 17.808594 79.136719 39.449219 79.136719 C 61.085938 79.136719 78.628906 61.59375 78.628906 39.957031 C 78.628906 18.316406 61.085938 0.773438 39.449219 0.773438 Z M 39.449219 0.773438 " clip-rule="nonzero"/></clipPath><clipPath id="6802851834"><rect x="0" width="79" y="0" height="80"/></clipPath></defs><g clip-path="url(#5c1653d31f)"><g clip-path="url(#783a8e8f02)"><g transform="matrix(1, 0, 0, 1, 435, 120)"><g clip-path="url(#1190ab6226)"><g clip-path="url(#7e3aefa979)"><g clip-path="url(#25b823a6fa)"><path fill="#ffcc00" d="M 0.191406 0.191406 L 569.808594 0.191406 L 569.808594 569.808594 L 0.191406 569.808594 Z M 0.191406 0.191406 " fill-opacity="1" fill-rule="nonzero"/></g></g></g></g></g></g><g clip-path="url(#fde29917ed)"><g clip-path="url(#31eb48a94f)"><g transform="matrix(1, 0, 0, 1, 488, 173)"><g clip-path="url(#6c07a9b683)"><g clip-path="url(#fb3e5a4e56)"><g clip-path="url(#4adf2b8f89)"><path fill="#ffffff" d="M 0.320312 0.320312 L 463.679688 0.320312 L 463.679688 463.679688 L 0.320312 463.679688 Z M 0.320312 0.320312 " fill-opacity="1" fill-rule="nonzero"/></g></g></g></g></g></g><g clip-path="url(#90164157f5)"><g clip-path="url(#283f0154ab)"><g transform="matrix(1, 0, 0, 1, 530, 215)"><g clip-path="url(#e9101d0586)"><g clip-path="url(#64cf0cb334)"><g clip-path="url(#5a72aab8db)"><path fill="#ffcc00" d="M 0.5625 0.5625 L 379.4375 0.5625 L 379.4375 379.4375 L 0.5625 379.4375 Z M 0.5625 0.5625 " fill-opacity="1" fill-rule="nonzero"/></g></g></g></g></g></g><g clip-path="url(#5278f40a02)"><g clip-path="url(#01487a43cf)"><g transform="matrix(1, 0, 0, 1, 599, 284)"><g clip-path="url(#de6f81362b)"><g clip-path="url(#e2d770a325)"><g clip-path="url(#bcac12b403)"><path fill="#feffff" d="M 0.371094 0.371094 L 241.628906 0.371094 L 241.628906 241.628906 L 0.371094 241.628906 Z M 0.371094 0.371094 " fill-opacity="1" fill-rule="nonzero"/></g></g></g></g></g></g><g clip-path="url(#8215fbb89e)"><g clip-path="url(#853894680f)"><g transform="matrix(1, 0, 0, 1, 649, 334)"><g clip-path="url(#e9f749da3a)"><g clip-path="url(#993313e49f)"><g clip-path="url(#ceb7367bf2)"><path fill="#000000" d="M 0.234375 0.234375 L 141.765625 0.234375 L 141.765625 141.765625 L 0.234375 141.765625 Z M 0.234375 0.234375 " fill-opacity="1" fill-rule="nonzero"/></g></g></g></g></g></g><g clip-path="url(#a324f3f191)"><g clip-path="url(#355dcc4c7c)"><g transform="matrix(1, 0, 0, 1, 762, 276)"><g clip-path="url(#6802851834)"><g clip-path="url(#8667abea0c)"><g clip-path="url(#0bb73ed051)"><path fill="#ff0000" d="M 0.265625 0.773438 L 78.628906 0.773438 L 78.628906 79.136719 L 0.265625 79.136719 Z M 0.265625 0.773438 " fill-opacity="1" fill-rule="nonzero"/></g></g></g></g></g></g></svg>