<svg xmlns="http://www.w3.org/2000/svg" xmlns:xlink="http://www.w3.org/1999/xlink" width="1920" zoomAndPan="magnify" viewBox="0 0 1440 809.999993" height="1080" preserveAspectRatio="xMidYMid meet" version="1.0"><defs><g/><clipPath id="158be55954"><path d="M 357.273438 141.167969 L 570.273438 141.167969 L 570.273438 669.167969 L 357.273438 669.167969 Z M 357.273438 141.167969 " clip-rule="nonzero"/></clipPath></defs><g clip-path="url(#158be55954)"><path fill="#f7d303" d="M 395.503906 389.703125 L 570.285156 141.253906 L 486.632812 332.425781 L 543.769531 330.59375 L 357.273438 669.03125 L 471.550781 388.21875 Z M 395.503906 389.703125 " fill-opacity="1" fill-rule="nonzero"/></g><g fill="#ffffff" fill-opacity="1"><g transform="translate(59.824222, 464.103513)"><g><path d="M 45.953125 -192.96875 L 45.953125 -70.875 C 45.953125 -53.707031 50.148438 -40.96875 58.546875 -32.65625 C 66.953125 -24.351562 78.628906 -20.203125 93.578125 -20.203125 C 108.347656 -20.203125 119.929688 -24.351562 128.328125 -32.65625 C 136.722656 -40.96875 140.921875 -53.707031 140.921875 -70.875 L 140.921875 -192.96875 L 166.109375 -192.96875 L 166.109375 -71.15625 C 166.109375 -55.09375 162.878906 -41.570312 156.421875 -30.59375 C 149.960938 -19.613281 141.242188 -11.445312 130.265625 -6.09375 C 119.285156 -0.738281 106.960938 1.9375 93.296875 1.9375 C 79.640625 1.9375 67.320312 -0.738281 56.34375 -6.09375 C 45.363281 -11.445312 36.6875 -19.613281 30.3125 -30.59375 C 23.945312 -41.570312 20.765625 -55.09375 20.765625 -71.15625 L 20.765625 -192.96875 Z M 45.953125 -192.96875 "/></g></g></g><g fill="#ffffff" fill-opacity="1"><g transform="translate(246.706048, 464.103513)"><g><path d="M 46.515625 -123.75 C 51.492188 -132.425781 58.921875 -139.671875 68.796875 -145.484375 C 78.671875 -151.296875 90.160156 -154.203125 103.265625 -154.203125 C 116.742188 -154.203125 128.972656 -150.972656 139.953125 -144.515625 C 150.929688 -138.054688 159.554688 -128.96875 165.828125 -117.25 C 172.109375 -105.53125 175.25 -91.914062 175.25 -76.40625 C 175.25 -61.09375 172.109375 -47.4375 165.828125 -35.4375 C 159.554688 -23.4375 150.929688 -14.113281 139.953125 -7.46875 C 128.972656 -0.832031 116.742188 2.484375 103.265625 2.484375 C 90.347656 2.484375 78.953125 -0.421875 69.078125 -6.234375 C 59.203125 -12.046875 51.679688 -19.289062 46.515625 -27.96875 L 46.515625 71.984375 L 21.3125 71.984375 L 21.3125 -151.71875 L 46.515625 -151.71875 Z M 149.5 -76.40625 C 149.5 -87.851562 147.191406 -97.820312 142.578125 -106.3125 C 137.960938 -114.800781 131.734375 -121.257812 123.890625 -125.6875 C 116.046875 -130.125 107.421875 -132.34375 98.015625 -132.34375 C 88.785156 -132.34375 80.242188 -130.078125 72.390625 -125.546875 C 64.546875 -121.023438 58.269531 -114.472656 53.5625 -105.890625 C 48.863281 -97.316406 46.515625 -87.398438 46.515625 -76.140625 C 46.515625 -64.691406 48.863281 -54.675781 53.5625 -46.09375 C 58.269531 -37.507812 64.546875 -30.957031 72.390625 -26.4375 C 80.242188 -21.914062 88.785156 -19.65625 98.015625 -19.65625 C 107.421875 -19.65625 116.046875 -21.914062 123.890625 -26.4375 C 131.734375 -30.957031 137.960938 -37.507812 142.578125 -46.09375 C 147.191406 -54.675781 149.5 -64.78125 149.5 -76.40625 Z M 149.5 -76.40625 "/></g></g></g><g fill="#ffffff" fill-opacity="1"><g transform="translate(433.864773, 464.103513)"><g/></g></g><g fill="#ffffff" fill-opacity="1"><g transform="translate(507.786919, 464.103513)"><g><path d="M 130.40625 -192.96875 L 130.40625 -172.484375 L 46.515625 -172.484375 L 46.515625 -107.421875 L 114.625 -107.421875 L 114.625 -86.9375 L 46.515625 -86.9375 L 46.515625 0 L 21.3125 0 L 21.3125 -192.96875 Z M 130.40625 -192.96875 "/></g></g></g><g fill="#ffffff" fill-opacity="1"><g transform="translate(647.325409, 464.103513)"><g><path d="M 87.484375 2.484375 C 73.273438 2.484375 60.398438 -0.742188 48.859375 -7.203125 C 37.328125 -13.660156 28.285156 -22.84375 21.734375 -34.75 C 15.179688 -46.65625 11.90625 -60.453125 11.90625 -76.140625 C 11.90625 -91.640625 15.269531 -105.34375 22 -117.25 C 28.738281 -129.15625 37.921875 -138.289062 49.546875 -144.65625 C 61.179688 -151.019531 74.195312 -154.203125 88.59375 -154.203125 C 102.988281 -154.203125 116 -151.019531 127.625 -144.65625 C 139.257812 -138.289062 148.441406 -129.203125 155.171875 -117.390625 C 161.910156 -105.578125 165.28125 -91.828125 165.28125 -76.140625 C 165.28125 -60.453125 161.816406 -46.65625 154.890625 -34.75 C 147.972656 -22.84375 138.609375 -13.660156 126.796875 -7.203125 C 114.984375 -0.742188 101.878906 2.484375 87.484375 2.484375 Z M 87.484375 -19.65625 C 96.523438 -19.65625 105.015625 -21.773438 112.953125 -26.015625 C 120.890625 -30.265625 127.300781 -36.632812 132.1875 -45.125 C 137.082031 -53.613281 139.53125 -63.953125 139.53125 -76.140625 C 139.53125 -88.316406 137.128906 -98.648438 132.328125 -107.140625 C 127.535156 -115.628906 121.265625 -121.953125 113.515625 -126.109375 C 105.765625 -130.265625 97.363281 -132.34375 88.3125 -132.34375 C 79.082031 -132.34375 70.640625 -130.265625 62.984375 -126.109375 C 55.328125 -121.953125 49.191406 -115.628906 44.578125 -107.140625 C 39.960938 -98.648438 37.65625 -88.316406 37.65625 -76.140625 C 37.65625 -63.773438 39.914062 -53.34375 44.4375 -44.84375 C 48.957031 -36.351562 55 -30.03125 62.5625 -25.875 C 70.132812 -21.726562 78.441406 -19.65625 87.484375 -19.65625 Z M 87.484375 -19.65625 "/></g></g></g><g fill="#ffffff" fill-opacity="1"><g transform="translate(824.517115, 464.103513)"><g><path d="M 155.875 -151.71875 L 155.875 0 L 130.671875 0 L 130.671875 -22.421875 C 125.878906 -14.671875 119.191406 -8.625 110.609375 -4.28125 C 102.023438 0.0507812 92.566406 2.21875 82.234375 2.21875 C 70.421875 2.21875 59.804688 -0.222656 50.390625 -5.109375 C 40.972656 -10.003906 33.539062 -17.34375 28.09375 -27.125 C 22.65625 -36.914062 19.9375 -48.820312 19.9375 -62.84375 L 19.9375 -151.71875 L 44.84375 -151.71875 L 44.84375 -66.171875 C 44.84375 -51.222656 48.625 -39.734375 56.1875 -31.703125 C 63.757812 -23.671875 74.097656 -19.65625 87.203125 -19.65625 C 100.679688 -19.65625 111.296875 -23.804688 119.046875 -32.109375 C 126.796875 -40.421875 130.671875 -52.515625 130.671875 -68.390625 L 130.671875 -151.71875 Z M 155.875 -151.71875 "/></g></g></g><g fill="#ffffff" fill-opacity="1"><g transform="translate(1001.708822, 464.103513)"><g><path d="M 95.234375 -154.484375 C 113.691406 -154.484375 128.640625 -148.898438 140.078125 -137.734375 C 151.523438 -126.566406 157.25 -110.460938 157.25 -89.421875 L 157.25 0 L 132.34375 0 L 132.34375 -85.828125 C 132.34375 -100.960938 128.554688 -112.539062 120.984375 -120.5625 C 113.421875 -128.59375 103.085938 -132.609375 89.984375 -132.609375 C 76.691406 -132.609375 66.125 -128.457031 58.28125 -120.15625 C 50.4375 -111.851562 46.515625 -99.765625 46.515625 -83.890625 L 46.515625 0 L 21.3125 0 L 21.3125 -151.71875 L 46.515625 -151.71875 L 46.515625 -130.125 C 51.492188 -137.875 58.273438 -143.867188 66.859375 -148.109375 C 75.441406 -152.359375 84.898438 -154.484375 95.234375 -154.484375 Z M 95.234375 -154.484375 "/></g></g></g><g fill="#ffffff" fill-opacity="1"><g transform="translate(1178.900528, 464.103513)"><g><path d="M 11.90625 -76.40625 C 11.90625 -91.914062 15.039062 -105.53125 21.3125 -117.25 C 27.59375 -128.96875 36.222656 -138.054688 47.203125 -144.515625 C 58.179688 -150.972656 70.503906 -154.203125 84.171875 -154.203125 C 95.984375 -154.203125 106.960938 -151.476562 117.109375 -146.03125 C 127.265625 -140.59375 135.019531 -133.445312 140.375 -124.59375 L 140.375 -204.875 L 165.84375 -204.875 L 165.84375 0 L 140.375 0 L 140.375 -28.515625 C 135.382812 -19.472656 128 -12.046875 118.21875 -6.234375 C 108.4375 -0.421875 96.992188 2.484375 83.890625 2.484375 C 70.410156 2.484375 58.179688 -0.832031 47.203125 -7.46875 C 36.222656 -14.113281 27.59375 -23.4375 21.3125 -35.4375 C 15.039062 -47.4375 11.90625 -61.09375 11.90625 -76.40625 Z M 140.375 -76.140625 C 140.375 -87.578125 138.066406 -97.539062 133.453125 -106.03125 C 128.835938 -114.519531 122.601562 -121.023438 114.75 -125.546875 C 106.90625 -130.078125 98.28125 -132.34375 88.875 -132.34375 C 79.457031 -132.34375 70.875 -130.125 63.125 -125.6875 C 55.375 -121.257812 49.191406 -114.800781 44.578125 -106.3125 C 39.960938 -97.820312 37.65625 -87.851562 37.65625 -76.40625 C 37.65625 -64.78125 39.960938 -54.675781 44.578125 -46.09375 C 49.191406 -37.507812 55.375 -30.957031 63.125 -26.4375 C 70.875 -21.914062 79.457031 -19.65625 88.875 -19.65625 C 98.28125 -19.65625 106.90625 -21.914062 114.75 -26.4375 C 122.601562 -30.957031 128.835938 -37.507812 133.453125 -46.09375 C 138.066406 -54.675781 140.375 -64.691406 140.375 -76.140625 Z M 140.375 -76.140625 "/></g></g></g><g fill="#ffffff" fill-opacity="1"><g transform="translate(1366.066362, 464.103513)"><g/></g></g></svg>